<svg xmlns="http://www.w3.org/2000/svg" width="512" height="512" viewBox="0 0 512 512">
  <rect width="512" height="512" fill="#0e1410" rx="92.16"/>
  <!-- Core spore -->
  <circle cx="256" cy="256" r="40.96" fill="#84f5b8" opacity="0.9"/>
  <circle cx="256" cy="256" r="20.48" fill="#0e1410" opacity="0.3"/>
  <!-- Glow halo -->
  <circle cx="256" cy="256" r="102.4" fill="none" stroke="#84f5b8" stroke-width="3.072" opacity="0.2"/>
  <!-- Tendrils -->
  <path d="M317.44,256 Q368.7583172576807,286.2135000490879 450.56,256" stroke="#84f5b8" stroke-width="9.216" fill="none" opacity="0.85" stroke-linecap="round"/>
  <circle cx="450.56" cy="256" r="12.8" fill="#84f5b8" opacity="0.7"/>
  <path d="M303.06577058523,295.492870739141 Q322.9570188738757,351.62453304211977 405.04160685322836,381.06075734061307" stroke="#84f5b8" stroke-width="9.216" fill="none" opacity="0.85" stroke-linecap="round"/>
  <circle cx="405.04160685322836" cy="381.06075734061307" r="12.8" fill="#84f5b8" opacity="0.7"/>
  <path d="M266.6689440358562,316.50658834507004 Q245.82578721460936,372.291784276438 289.784989446878,447.6041964260552" stroke="#84f5b8" stroke-width="9.216" fill="none" opacity="0.85" stroke-linecap="round"/>
  <circle cx="289.784989446878" cy="447.6041964260552" r="12.8" fill="#84f5b8" opacity="0.7"/>
  <path d="M225.28000000000003,309.20860080851594 Q173.4551827914072,338.5448172085928 158.72000000000003,424.4939025603004" stroke="#84f5b8" stroke-width="9.216" fill="none" opacity="0.85" stroke-linecap="round"/>
  <circle cx="158.72000000000003" cy="424.4939025603004" r="12.8" fill="#84f5b8" opacity="0.7"/>
  <path d="M198.2652853789138,277.0137176059291 Q139.70821572356198,266.1742127853907 73.17340369989367,322.5434390854421" stroke="#84f5b8" stroke-width="9.216" fill="none" opacity="0.85" stroke-linecap="round"/>
  <circle cx="73.17340369989367" cy="322.5434390854421" r="12.8" fill="#84f5b8" opacity="0.7"/>
  <path d="M198.2652853789138,234.9862823940709 Q160.37546695788023,189.04298112612432 73.17340369989364,189.4565609145579" stroke="#84f5b8" stroke-width="9.216" fill="none" opacity="0.85" stroke-linecap="round"/>
  <circle cx="73.17340369989364" cy="189.4565609145579" r="12.8" fill="#84f5b8" opacity="0.7"/>
  <path d="M225.27999999999997,202.79139919148412 Q225.78649995091214,143.2416827423193 158.7199999999999,87.50609743969966" stroke="#84f5b8" stroke-width="9.216" fill="none" opacity="0.85" stroke-linecap="round"/>
  <circle cx="158.7199999999999" cy="87.50609743969966" r="12.8" fill="#84f5b8" opacity="0.7"/>
  <path d="M266.66894403585616,195.49341165492993 Q305.3347654025623,150.20125417248966 289.7849894468779,64.39580357394479" stroke="#84f5b8" stroke-width="9.216" fill="none" opacity="0.85" stroke-linecap="round"/>
  <circle cx="289.7849894468779" cy="64.39580357394479" r="12.8" fill="#84f5b8" opacity="0.7"/>
  <path d="M303.06577058523,216.50712926085902 Q361.79874582751034,206.66523459743763 405.04160685322836,130.93924265938688" stroke="#84f5b8" stroke-width="9.216" fill="none" opacity="0.85" stroke-linecap="round"/>
  <circle cx="405.04160685322836" cy="130.93924265938688" r="12.8" fill="#84f5b8" opacity="0.7"/>
  <path d="M302.187771696869,272.8109740847433 Q333.066622181744,266.8310074091161 374.83728759506914,299.25323540553734" stroke="#84f5b8" stroke-width="7.168" fill="none" opacity="0.5" stroke-linecap="round"/>
  <circle cx="374.83728759506914" cy="299.25323540553734" r="8.959999999999999" fill="#84f5b8" opacity="0.45"/>
  <path d="M280.576,298.5668806468127 Q308.0744203092718,313.83450289795275 319.232,365.52103666419526" stroke="#84f5b8" stroke-width="7.168" fill="none" opacity="0.5" stroke-linecap="round"/>
  <circle cx="319.232" cy="365.52103666419526" r="8.959999999999999" fill="#84f5b8" opacity="0.45"/>
  <path d="M247.46484477131503,304.40527067605603 Q258.71601843137546,333.7765917219341 234.03975685952932,380.5427276769359" stroke="#84f5b8" stroke-width="7.168" fill="none" opacity="0.5" stroke-linecap="round"/>
  <circle cx="234.03975685952932" cy="380.5427276769359" r="8.959999999999999" fill="#84f5b8" opacity="0.45"/>
  <path d="M218.347383531816,287.5942965913128 Q208.08676134425596,317.32614888868954 159.12295554540157,337.28949227139856" stroke="#84f5b8" stroke-width="7.168" fill="none" opacity="0.5" stroke-linecap="round"/>
  <circle cx="159.12295554540157" cy="337.28949227139856" r="8.959999999999999" fill="#84f5b8" opacity="0.45"/>
  <path d="M206.848,256 Q179.8766411204923,272.1805194262013 129.536,256" stroke="#84f5b8" stroke-width="7.168" fill="none" opacity="0.5" stroke-linecap="round"/>
  <circle cx="129.536" cy="256" r="8.959999999999999" fill="#84f5b8" opacity="0.45"/>
  <path d="M218.34738353181598,224.40570340868723 Q187.28548653334687,219.46384509775083 159.12295554540154,174.7105077286015" stroke="#84f5b8" stroke-width="7.168" fill="none" opacity="0.5" stroke-linecap="round"/>
  <circle cx="159.12295554540154" cy="174.7105077286015" r="8.959999999999999" fill="#84f5b8" opacity="0.45"/>
  <path d="M247.46484477131503,207.59472932394397 Q226.84661647400003,183.84284370219433 234.03975685952932,131.45727232306413" stroke="#84f5b8" stroke-width="7.168" fill="none" opacity="0.5" stroke-linecap="round"/>
  <circle cx="234.03975685952932" cy="131.45727232306413" r="8.959999999999999" fill="#84f5b8" opacity="0.45"/>
  <path d="M280.576,213.43311935318727 Q280.0489385702359,181.98497767584595 319.232,146.47896333580474" stroke="#84f5b8" stroke-width="7.168" fill="none" opacity="0.5" stroke-linecap="round"/>
  <circle cx="319.232" cy="146.47896333580474" r="8.959999999999999" fill="#84f5b8" opacity="0.45"/>
  <path d="M302.187771696869,239.18902591525674 Q321.99849503527764,214.75956318031498 374.83728759506914,212.74676459446263" stroke="#84f5b8" stroke-width="7.168" fill="none" opacity="0.5" stroke-linecap="round"/>
  <circle cx="374.83728759506914" cy="212.74676459446263" r="8.959999999999999" fill="#84f5b8" opacity="0.45"/>
</svg>